# xmcd CD database file
#
# Track frame offsets:
#	150
#	16943
#	41614
#	56348
#	76393
#	93135
#	114753
#	137110
#	154688
#	173934
#
# Disc length: 2747 seconds
#
# Revision: 0
# Processed by: cddbd v1.5.2PL0 Copyright (c) Steve Scherf et al.
# Submitted via: CDex 1.51
#
DISCID=6d0ab90a
DTITLE=Christina Courtin - Christina Courtin
DYEAR=2009
DGENRE=Country
TTITLE0=Green Jay
TTITLE1=Bundah
TTITLE2=Foreign Country
TTITLE3=Hedonistic Paradise
TTITLE4=Mulberries
TTITLE5=February
TTITLE6=Laconia
TTITLE7=One Man Down
TTITLE8=Rainy
TTITLE9=Unzipped
EXTD=YEAR: 2009
EXTT0=
EXTT1=
EXTT2=
EXTT3=
EXTT4=
EXTT5=
EXTT6=
EXTT7=
EXTT8=
EXTT9=
PLAYORDER=
